<svg fill="#000000" height="800px" width="800px" version="1.1" id="Layer_1" xmlns="http://www.w3.org/2000/svg" xmlns:xlink="http://www.w3.org/1999/xlink" 
	 viewBox="0 0 512 512" xml:space="preserve">
<g>
	<g>
		<g>
			<path d="M86.674,201.541c-4.915,11.273-8.917,23.066-11.887,35.046c-1.135,4.574,1.655,9.199,6.229,10.334
				c0.691,0.171,1.374,0.247,2.057,0.247c3.831,0,7.313-2.594,8.277-6.477c2.739-11.051,6.426-21.931,10.965-32.324
				c1.877-4.318-0.094-9.353-4.412-11.23C93.56,195.235,88.551,197.223,86.674,201.541z"/>
			<path d="M509.884,259.431c-0.648-4.676-5-7.936-9.617-7.287c-4.668,0.649-7.936,4.958-7.287,9.626
				c1.297,9.378,1.954,18.927,1.954,28.365c0,112.111-90.539,203.46-202.342,204.791c-30.345-19.388-58.786-43.127-46.114-72.695
				c22.75-53.094,1.579-72.892-7.467-81.348l-1.698-1.613c-2.586-2.577-5.495-4.335-8.073-5.879
				c-6.246-3.746-7.927-4.753-4.574-14.814c2.219-6.682,5.171-9.796,8.576-13.406c7.893-8.346,13.926-16.648,13.926-40.781
				c0-14.046-7.125-25.25-19.55-30.737c-14.089-6.229-32.905-4.028-42.854,5c-6.212,5.649-8.303,13.338-5.726,21.077
				c6.084,18.219-7.817,44.553-33.792,64.034c-6.878,5.163-8.926,2.799-10.155,1.382c-7.62-8.781-7.031-33.758-0.776-40.004
				c4.19-4.19,5.436-9.54,3.328-14.31c-6.912-15.684-51.012-14.473-59.75-14.054c-0.375,0.017-0.683,0.196-1.033,0.265
				c-0.503,0.085-0.981,0.188-1.459,0.358c-0.606,0.222-1.135,0.512-1.672,0.853c-0.384,0.239-0.734,0.495-1.075,0.794
				c-0.461,0.418-0.845,0.87-1.203,1.382c-0.29,0.393-0.546,0.794-0.768,1.246c-0.256,0.538-0.418,1.084-0.563,1.673
				c-0.077,0.316-0.265,0.58-0.307,0.913c-1.084,8.823-1.545,16.563-1.545,25.873c0,102.315,69.282,190.882,168.474,215.39
				c0.683,0.171,1.374,0.256,2.048,0.256c3.831,0,7.322-2.603,8.277-6.494c1.135-4.574-1.664-9.199-6.238-10.325
				C149.274,466.339,85.334,384.572,85.334,290.134c0-5.914,0.222-11.145,0.674-16.469c14.396-0.051,26.692,1.638,32.939,3.55
				c-9.788,15.283-8.713,45.329,3.251,59.119c8.576,9.873,21.018,10.291,33.289,1.084c32.785-24.585,48.384-57.207,39.74-83.081
				c-0.273-0.845-0.546-1.638,1.024-3.063c4.489-4.079,15.915-5.803,24.465-2.014c6.315,2.79,9.387,7.74,9.387,15.13
				c0,19.26-3.883,23.373-9.259,29.056c-3.985,4.224-8.951,9.472-12.373,19.738c-7.672,23.049,4.634,30.438,11.989,34.85
				c1.903,1.135,3.695,2.21,4.787,3.302c0.623,0.623,1.331,1.289,2.108,2.014c7.501,7.014,21.47,20.079,3.439,62.157
				c-20.446,47.71,32.273,80.973,54.784,95.181c1.365,0.853,2.944,1.314,4.557,1.314C412.468,512,512,412.468,512,290.134
				C512,279.911,511.292,269.586,509.884,259.431z"/>
			<path d="M392.5,294.571c-2.466,0.708-5.837,1.673-6.733,1.741c-11.793,0-19.268,9.131-24.721,15.795
				c-2.091,2.551-5.769,7.33-8.243,7.177c-3.857-1.929-7.91-2.901-12.049-2.901c-10.061,0-18.773,5.982-20.719,14.242
				c-1.374,5.803,0.648,13.747,10.419,18.637c13.858,6.929,28.186,14.089,34.56,20.463c4.386,4.386,11.972,6.904,20.821,6.904
				c13.44,0,31.309-6.528,37.444-24.943c2.424-7.253,8.218-12.8,13.824-18.168c6.502-6.229,12.655-12.1,12.74-20.548
				c0.06-4.984-2.15-9.745-6.554-14.157c-5.999-5.999-14.165-9.037-24.286-9.037C409.293,289.775,399.582,292.549,392.5,294.571z
				 M432.777,312.739c-0.401,1.681-4.651,5.751-7.475,8.457c-6.443,6.161-14.455,13.833-18.21,25.096
				c-4.215,12.638-18.449,13.269-21.257,13.269c-4.975,0-8.098-1.314-8.747-1.894c-8.346-8.346-23.236-15.795-39.006-23.671
				c-0.034-0.017-0.06-0.026-0.094-0.043c1.604-0.649,4.565-0.708,7.185,0.597c2.756,1.382,5.581,2.082,8.405,2.082
				c9.446,0,15.411-7.287,20.668-13.713c3.849-4.693,7.808-9.54,11.52-9.54c3.038,0,6.554-1.007,11.418-2.398
				c6.46-1.843,14.498-4.139,21.82-4.139c5.504,0,9.498,1.323,12.211,4.036C432.402,312.073,432.717,312.739,432.777,312.739z"/>
			<path d="M210.398,101.436c25.25-10.684,52.079-16.102,79.735-16.102c14.49,0,28.894,1.51,42.923,4.506
				c-0.307,12.279,4.992,20.702,8.405,26.112c0.939,1.502,2.236,3.55,2.389,3.831c0,30.609-6.255,35.584-6.187,35.601
				c-13.833,0-36.531,12.356-45.065,28.288c-5.24,9.771-4.813,20.113,1.186,29.124c4.113,6.17,7.654,13.03,11.085,19.669
				c7.253,14.046,15.309,29.628,27.93,29.628c2.68,0,5.564-0.7,8.687-2.261c9.95-4.975,17.084-19.123,23.979-32.794
				c3.038-6.025,7.501-14.865,10.146-17.673c8.661,1.178,12.894,9.011,18.62,21.419c4.215,9.131,8.576,18.56,17.143,22.844
				c14.421,7.211,61.841-0.341,88.047-11.469c0.35-0.145,0.589-0.435,0.913-0.623c0.503-0.299,0.981-0.58,1.408-0.964
				c0.41-0.375,0.725-0.785,1.05-1.22c0.333-0.435,0.64-0.862,0.879-1.348c0.247-0.495,0.384-1.007,0.521-1.536
				c0.145-0.529,0.273-1.033,0.316-1.579c0.034-0.572-0.034-1.118-0.119-1.698c-0.043-0.375,0.034-0.734-0.068-1.109
				c-17.911-66.219-66.56-121.301-130.15-147.337c-4.361-1.792-9.353,0.299-11.136,4.659c-1.784,4.361,0.307,9.344,4.668,11.127
				c56.311,23.066,99.874,70.835,117.922,128.649c-26.547,9.353-60.553,12.177-66.62,9.182c-3.209-1.604-6.434-8.576-9.276-14.729
				c-5.948-12.885-14.097-30.532-34.901-31.454c-10.837-0.572-16.811,11.733-24.602,27.179
				c-4.574,9.062-11.477,22.767-16.981,25.464c-3.166-0.742-9.455-12.919-13.21-20.19c-3.473-6.724-7.407-14.345-12.049-21.299
				c-2.517-3.772-2.62-7.356-0.341-11.605c5.862-10.94,23.45-19.277,30.02-19.277c15.428,0,23.253-17.715,23.253-52.668
				c0-4.966-2.552-9.011-5.009-12.928c-3.618-5.726-7.347-11.657-5.137-21.777c0.981-4.497-1.783-8.969-6.246-10.095
				c-17.673-4.454-35.977-6.716-54.391-6.716c-29.952,0-59.017,5.871-86.383,17.451c-4.344,1.835-6.374,6.844-4.531,11.179
				C201.054,101.24,206.063,103.271,210.398,101.436z"/>
			<path d="M104.551,91.008c1.69,1.894,4.036,2.859,6.383,2.859c2.022,0,4.045-0.708,5.675-2.15
				c3.516-3.14,3.831-8.525,0.708-12.058l-22.758-25.6c-3.14-3.516-8.525-3.823-12.058-0.708c-3.516,3.14-3.831,8.525-0.708,12.058
				L104.551,91.008z"/>
			<path d="M296.662,414.012c-10.65,0-23.142,12.254-27.699,23.253c-3.558,8.593-2.5,16.606,2.91,22.016
				c5.094,5.094,12.655,8.021,20.745,8.021c8.09,0,15.65-2.927,20.753-8.021c5.666-5.666,7.049-13.995,3.891-23.441
				c-2.125-6.383-6.332-13.133-11.255-18.057C303.565,415.352,300.254,414.012,296.662,414.012z M301.304,447.207
				c-3.789,3.789-13.636,3.686-17.323,0.094c-0.12-0.367-0.111-2.5,2.15-6.229c2.944-4.864,7.1-8.294,9.353-9.515
				c2.423,2.876,4.523,6.477,5.589,9.677C302.021,444.058,302.106,446.405,301.304,447.207z"/>
			<path d="M145.067,204.8c32.939,0,59.733-26.795,59.733-59.733c0-13.056-4.693-25.754-14.362-38.818
				C177.741,89.08,118.52,4.489,117.923,3.644c-2.705-3.866-8.021-4.804-11.878-2.099c-3.866,2.705-4.804,8.021-2.099,11.878
				c2.441,3.49,59.947,85.623,72.772,102.98c7.415,10.01,11.017,19.396,11.017,28.663c0,23.526-19.14,42.667-42.667,42.667
				c-9.37,0-18.398-3.558-29.261-11.537c-16.776-12.322-98.893-69.811-102.383-72.252c-3.849-2.697-9.173-1.758-11.878,2.099
				c-2.705,3.857-1.766,9.173,2.099,11.878c0.845,0.597,85.444,59.819,102.059,72.03C114.381,196.327,127.907,204.8,145.067,204.8z"
				/>
			<path d="M102.4,145.067c0,4.71,3.823,8.533,8.533,8.533s8.533-3.823,8.533-8.533c0-14.114,11.486-25.6,25.6-25.6
				c4.71,0,8.533-3.823,8.533-8.533s-3.823-8.533-8.533-8.533C121.541,102.4,102.4,121.541,102.4,145.067z"/>
			<path d="M2.859,49.05l25.6,22.75c1.63,1.442,3.652,2.159,5.675,2.159c2.347,0,4.693-0.973,6.383-2.867
				c3.123-3.524,2.807-8.917-0.708-12.049l-25.6-22.758c-3.533-3.132-8.917-2.807-12.058,0.708
				C-0.972,40.525-0.657,45.91,2.859,49.05z"/>
			<path d="M65.408,81.792c-3.533-3.132-8.917-2.807-12.049,0.708c-3.132,3.524-2.816,8.917,0.7,12.049l25.6,22.758
				c1.63,1.451,3.652,2.159,5.675,2.159c2.347,0,4.693-0.964,6.374-2.859c3.132-3.524,2.816-8.917-0.7-12.049L65.408,81.792z"/>
			<path d="M61.901,43.026c1.69,1.894,4.036,2.859,6.383,2.859c2.022,0,4.045-0.717,5.675-2.15c3.516-3.14,3.831-8.533,0.708-12.058
				L49.05,2.859c-3.14-3.516-8.525-3.831-12.058-0.708c-3.516,3.14-3.831,8.525-0.708,12.058L61.901,43.026z"/>
		</g>
	</g>
</g>
</svg>